<svg width="530" height="38" viewBox="0 0 530 38" fill="none" xmlns="http://www.w3.org/2000/svg">
<g clip-path="url(#clip0_2008_8922)">
<mask id="path-1-inside-1_2008_8922" fill="white">
<path d="M0 0H530V38H0V0Z"/>
</mask>
<path d="M0 0H530V38H0V0Z" fill="white"/>
<mask id="path-3-inside-2_2008_8922" fill="white">
<path d="M0 0H530V18H0V0Z"/>
</mask>
<path d="M530 18V17H0V18V19H530V18Z" fill="black" mask="url(#path-3-inside-2_2008_8922)"/>
<rect width="528" height="15" transform="translate(1 1)" fill="white"/>
<rect x="1" y="3" width="528" height="1" fill="black"/>
<rect x="1" y="5" width="528" height="1" fill="black"/>
<rect x="1" y="7" width="528" height="1" fill="black"/>
<rect x="1" y="9" width="528" height="1" fill="black"/>
<rect x="1" y="11" width="528" height="1" fill="black"/>
<rect x="1" y="13" width="528" height="1" fill="black"/>
<rect width="529" height="1" fill="white"/>
<rect width="1" height="17" fill="white"/>
<rect y="16" width="530" height="1" fill="white"/>
<rect x="529" width="1" height="17" fill="white"/>
<rect width="57" height="15" transform="translate(237 1)" fill="white"/>
<path d="M245.2 12H244.2V11V10V9V8V7V6V5V4V3H245.2H246.2H247.2H248.2H249.2H250.2V4H249.2H248.2H247.2H246.2V5V6V7H247.2H248.2H249.2V8H248.2H247.2H246.2V9V10V11V12H245.2ZM256.32 12H255.32H254.32H253.32V11H252.32V10V9V8V7V6H253.32V5H254.32H255.32H256.32H257.32V6H258.32V7V8V9V10V11H257.32V12H256.32ZM255.32 11H256.32V10V9V8V7V6H255.32H254.32V7V8V9V10V11H255.32ZM261.44 12H260.44V11V10V9V8V7V6V5V4V3H261.44H262.44V4V5V6V7V8V9V10V11V12H261.44ZM269.56 12H268.56H267.56H266.56H265.56V11H264.56V10V9V8V7V6H265.56V5H266.56H267.56H268.56V4V3H269.56H270.56V4V5V6V7V8V9V10V11V12H269.56ZM267.56 11H268.56V10V9V8V7V6H267.56H266.56V7V8V9V10V11H267.56ZM276.68 11H277.68V12H276.68H275.68H274.68H273.68V11H272.68V10V9V8V7V6H273.68V5H274.68H275.68H276.68H277.68V6H278.68V7V8V9H277.68H276.68H275.68H274.68V10V11H275.68H276.68ZM277.68 11V10H278.68V11H277.68ZM275.68 8H276.68V7V6H275.68H274.68V7V8H275.68ZM281.8 12H280.8V11V10V9V8V7V6V5H281.8H282.8V6H283.8V5H284.8H285.8V6V7H284.8H283.8H282.8V8V9V10V11V12H281.8Z" fill="black"/>
<rect width="13" height="13" transform="translate(7 2)" fill="white"/>
<rect x="8.5" y="3.5" width="10" height="10" stroke="black"/>
<rect width="13" height="13" transform="translate(510 2)" fill="white"/>
<rect x="511.5" y="3.5" width="10" height="10" stroke="black"/>
<path d="M518 4H517V9H512V10H518V4Z" fill="black"/>
<rect width="530" height="20" transform="translate(0 18)" fill="white"/>
<rect y="35" width="530" height="1" fill="black"/>
<path d="M13 29H14V30H13H12H11V29H12H13ZM14 29V28V27H15V28V29H14ZM11 29H10V28H11V29ZM14 27H13H12H11V26H12V25H13V26H14V27ZM13 25V24H12H11H10V23H11H12H13H14H15V24H14V25H13ZM16 25V24H17V25H16ZM20 29H21V30H20H19H18H17H16V29H17V28H18V29H19H20ZM18 28V27H19V28H18ZM19 27V26H20V27H19ZM20 26V25V24H21V25V26H20ZM20 24H19H18H17V23H18H19H20V24Z" fill="black"/>
<path d="M28 30V29V28V27V26H27V25H28H29V26V27V28V29V30H28ZM28 24V23H29V24H28ZM32 30V29H33V30H32ZM32 29H31V28V27V26H30V25H31V24V23H32V24V25H33V26H32V27V28V29ZM36 29H37V30H36H35V29H36ZM35 29H34V28V27V26H35V27H36H37V26H38V27V28H37H36H35V29ZM37 26H36H35V25H36H37V26ZM45 30V29V28V27V26H46V27V28V29V30H45ZM42 30V29V28V27V26H43V27V28V29V30H42ZM39 30V29V28V27V26V25H40H41H42V26H41H40V27V28V29V30H39ZM45 26H44H43V25H44H45V26ZM49 29H50V30H49H48H47V29H48H49ZM50 29V28H51V29H50ZM50 28H49H48V27H49H50V28ZM48 27H47V26H48V27ZM50 25H51V26H50H49H48V25H49H50Z" fill="black"/>
<path d="M443 30V29V28V27V26V25H442V24H443V23H444V24V25V26V27V28V29V30H443ZM445 25V24H446V25H445ZM449 29H450V30H449H448H447H446H445V29H446V28H447V29H448H449ZM447 28V27H448V28H447ZM448 27V26H449V27H448ZM449 26V25V24H450V25V26H449ZM449 24H448H447H446V23H447H448H449V24ZM455 29H456V30H455H454H453V29H454H455ZM456 29V28V27H457V28V29H456ZM453 29H452V28V27H453V28V29ZM456 27H455H454H453V26H454H455H456V27ZM456 26V25V24H457V25V26H456ZM453 26H452V25V24H453V25V26ZM456 24H455H454H453V23H454H455H456V24ZM469 30V29V28V27V26V25H468V26H467V27H466V26H467V25H468V24H469V23H470V24V25V26V27V28V29V30H469ZM463 30V29V28V27V26V25V24V23H464V24H465V25H466V26H465V25H464V26V27V28V29V30H463ZM474 29H475V28V27H474H473H472V28V29H473H474ZM474 30H473H472H471V29V28V27V26V25V24V23H472H473H474H475V24H476V25V26H475V25V24H474H473H472V25V26H473H474H475V27H476V28V29H475V30H474Z" fill="black"/>
<path d="M485 30H484H483V29H482V28V27V26H483V25H484H485H486V26V27V28V29V30H485ZM484 29H485V28V27V26H484H483V27V28V29H484ZM489 30V29V28H490V29V30H489ZM490 28V27V26H491V27V28H490ZM489 28H488V27V26H489V27V28ZM491 26V25H492V26H491ZM488 26H487V25H488V26ZM496 30H495H494V29H493V28V27V26H494V25H495H496H497V26V27V28V29V30H496ZM495 29H496V28V27V26H495H494V27V28V29H495ZM499 30V29V28V27V26H498V25H499H500V26V27V28V29V30H499ZM499 24V23H500V24H499ZM501 30V29V28V27V26V25V24V23H502V24V25V26V27V28V29V30H501ZM506 30H505H504V29H503V28V27V26H504V25H505H506H507V26V27V28V29V30H506ZM505 29H506V28V27V26H505H504V27V28V29H505ZM510 29H511V28V27V26H510H509V27V28V29H510ZM510 30H509H508V29V28V27V26V25V24V23H509V24V25H510H511V26H512V27V28V29H511V30H510ZM513 30V29V28V27V26V25V24V23H514V24V25V26V27V28V29V30H513ZM517 29H518V30H517H516V29H517ZM516 29H515V28V27V26H516V27H517H518V26H519V27V28H518H517H516V29ZM518 26H517H516V25H517H518V26Z" fill="black"/>
<path d="M235 29H236V30H235H234H233V29H234H235ZM236 29V28V27H237V28V29H236ZM233 29H232V28V27V26V25H233V26H234H235H236V27H235H234H233V28V29ZM233 25V24H234V25H233ZM235 23H236V24H235H234V23H235ZM241 30V29V28H240H239H238V27V26H239V25H240V24H241V23H242V24V25V26V27H243V28H242V29V30H241ZM240 27H241V26V25H240V26H239V27H240ZM255 30V29V28V27V26V25H254V26H253V27H252V26H253V25H254V24H255V23H256V24V25V26V27V28V29V30H255ZM249 30V29V28V27V26V25V24V23H250V24H251V25H252V26H251V25H250V26V27V28V29V30H249ZM260 29H261V28V27H260H259H258V28V29H259H260ZM260 30H259H258H257V29V28V27V26V25V24V23H258H259H260H261V24H262V25V26H261V25V24H260H259H258V25V26H259H260H261V27H262V28V29H261V30H260Z" fill="black"/>
<path d="M269 30V29V28V27V26H268V25H269H270V26V27V28V29V30H269ZM269 24V23H270V24H269ZM274 30V29V28V27V26H275V27V28V29V30H274ZM271 30V29V28V27V26V25H272H273H274V26H273H272V27V28V29V30H271ZM284 30H283H282V29H281V28V27V26H282V25H283H284V24V23H285V24V25V26V27V28V29V30H284ZM283 29H284V28V27V26H283H282V27V28V29H283ZM287 30V29V28V27V26H286V25H287H288V26V27V28V29V30H287ZM287 24V23H288V24H287ZM291 29H292V30H291H290H289V29H290H291ZM292 29V28H293V29H292ZM292 28H291H290V27H291H292V28ZM290 27H289V26H290V27ZM292 25H293V26H292H291H290V25H291H292ZM297 30V29H298V30H297ZM294 30V29V28V27V26V25V24V23H295V24V25V26V27H296V28H297V29H296V28H295V29V30H294ZM296 27V26H297V27H296ZM297 26V25H298V26H297Z" fill="black"/>
</g>
<path d="M530 38V37H0V38V39H530V38Z" fill="black" mask="url(#path-1-inside-1_2008_8922)"/>
<defs>
<clipPath id="clip0_2008_8922">
<path d="M0 0H530V38H0V0Z" fill="white"/>
</clipPath>
</defs>
</svg>
