<svg width="16" height="16" viewBox="0 0 16 16" fill="none" xmlns="http://www.w3.org/2000/svg">
<rect x="2" y="3" width="12" height="10" fill="white"/>
<path d="M2 6H3V7H2V6Z" fill="black"/>
<path d="M3 7H4V8H3V7Z" fill="black"/>
<path d="M2 8H3V9H2V8Z" fill="black"/>
<path d="M3 9H4V10H3V9Z" fill="black"/>
<path d="M2 10H3V11H2V10Z" fill="black"/>
<path d="M3 11H4V12H3V11Z" fill="black"/>
<path d="M2 12H3V13H2V12Z" fill="black"/>
<path d="M4 6H5V7H4V6Z" fill="black"/>
<path d="M5 7H6V8H5V7Z" fill="black"/>
<path d="M4 8H5V9H4V8Z" fill="black"/>
<path d="M5 9H6V10H5V9Z" fill="black"/>
<path d="M4 10H5V11H4V10Z" fill="black"/>
<path d="M5 11H6V12H5V11Z" fill="black"/>
<path d="M4 12H5V13H4V12Z" fill="black"/>
<path d="M6 6H7V7H6V6Z" fill="black"/>
<path d="M7 7H8V8H7V7Z" fill="black"/>
<path d="M6 8H7V9H6V8Z" fill="black"/>
<path d="M7 9H8V10H7V9Z" fill="black"/>
<path d="M6 10H7V11H6V10Z" fill="black"/>
<path d="M7 11H8V12H7V11Z" fill="black"/>
<path d="M6 12H7V13H6V12Z" fill="black"/>
<path d="M8 6H9V7H8V6Z" fill="black"/>
<path d="M9 7H10V8H9V7Z" fill="black"/>
<path d="M8 8H9V9H8V8Z" fill="black"/>
<path d="M9 9H10V10H9V9Z" fill="black"/>
<path d="M8 10H9V11H8V10Z" fill="black"/>
<path d="M9 11H10V12H9V11Z" fill="black"/>
<path d="M8 12H9V13H8V12Z" fill="black"/>
<path d="M10 6H11V7H10V6Z" fill="black"/>
<path d="M11 7H12V8H11V7Z" fill="black"/>
<path d="M11 9H12V10H11V9Z" fill="black"/>
<path d="M10 10H11V11H10V10Z" fill="black"/>
<path d="M11 11H12V12H11V11Z" fill="black"/>
<path d="M10 12H11V13H10V12Z" fill="black"/>
<path d="M12 6H13V7H12V6Z" fill="black"/>
<path d="M13 7H14V8H13V7Z" fill="black"/>
<path d="M12 8H13V9H12V8Z" fill="black"/>
<path d="M13 9H14V10H13V9Z" fill="black"/>
<path d="M12 10H13V11H12V10Z" fill="black"/>
<path d="M13 11H14V12H13V11Z" fill="black"/>
<path d="M12 12H13V13H12V12Z" fill="black"/>
<path d="M10 8H11V9H10V8Z" fill="black"/>
<path d="M2 2H14V3H2V2Z" fill="black"/>
<path d="M14 5V3H15V13H14V6H2V13H1V3H2V5H14Z" fill="black"/>
<path d="M2 13H14V14H2V13Z" fill="black"/>
</svg>
